<svg xmlns="http://www.w3.org/2000/svg" width="60" height="59.545" viewBox="0 0 60 59.545">
  <g id="Group_14" data-name="Group 14" transform="translate(-495 -4061.455)">
    <path id="Path_4" data-name="Path 4" d="M43.794-145.408h2.721a9.773,9.773,0,0,1,2.4-4.412l8.062-8.826,2.153-3.036v-8.506c.076,0,.152-.012.227-.012h1.847a5.553,5.553,0,0,1,5.548,5.558v6.253l-2,5.858a15.064,15.064,0,0,1,.217,9.106c-2.057,7.283-8.813,11.743-15.087,9.964" transform="translate(466.27 4232.656)" fill="none" stroke="#efd6b6" stroke-miterlimit="2" stroke-width="2"/>
    <path id="Path_5" data-name="Path 5" d="M72.33-24.279H55.988a9.729,9.729,0,0,1-7.815-3.942H43.794" transform="translate(466.27 4139.513)" fill="none" stroke="#efd6b6" stroke-miterlimit="2" stroke-width="2"/>
    <path id="Path_6" data-name="Path 6" d="M130.988-115.585a4.433,4.433,0,0,1-4.427,4.438h-12.4a4.435,4.435,0,0,1-4.43-4.438,4.435,4.435,0,0,1,4.43-4.437h12.4A4.432,4.432,0,0,1,130.988-115.585Z" transform="translate(423.012 4199.737)" fill="none" stroke="#efd6b6" stroke-miterlimit="2" stroke-width="2"/>
    <path id="Path_7" data-name="Path 7" d="M124.128-89.784a4.433,4.433,0,0,1-4.427,4.437H107.3a4.433,4.433,0,0,1-4.427-4.437,4.431,4.431,0,0,1,4.427-4.437h12.4A4.431,4.431,0,0,1,124.128-89.784Z" transform="translate(427.512 4182.811)" fill="none" stroke="#efd6b6" stroke-miterlimit="2" stroke-width="2"/>
    <path id="Path_8" data-name="Path 8" d="M120.688-63.986a4.431,4.431,0,0,1-4.427,4.437h-12.4a4.434,4.434,0,0,1-4.43-4.437,4.434,4.434,0,0,1,4.43-4.437h12.4A4.431,4.431,0,0,1,120.688-63.986Z" transform="translate(429.769 4165.887)" fill="none" stroke="#efd6b6" stroke-miterlimit="2" stroke-width="2"/>
    <path id="Path_9" data-name="Path 9" d="M117.149-38.187a4.433,4.433,0,0,1-4.43,4.437h-8.854a4.435,4.435,0,0,1-4.43-4.437,4.434,4.434,0,0,1,4.43-4.437h8.854A4.431,4.431,0,0,1,117.149-38.187Z" transform="translate(429.769 4148.962)" fill="none" stroke="#efd6b6" stroke-miterlimit="2" stroke-width="2"/>
    <path id="Path_10" data-name="Path 10" d="M0-101.477H13.639v34.906H0" transform="translate(495 4187.571)" fill="#efd6b6"/>
  </g>
</svg>
