<svg xmlns="http://www.w3.org/2000/svg" width="14.289" height="14.316" viewBox="0 0 14.289 14.316">
  <path id="Icon_feather-phone" data-name="Icon feather-phone" d="M16.455,12.968v2A1.336,1.336,0,0,1,15,16.309a13.222,13.222,0,0,1-5.766-2.051,13.028,13.028,0,0,1-4.009-4.009A13.222,13.222,0,0,1,3.173,4.456,1.336,1.336,0,0,1,4.5,3h2A1.336,1.336,0,0,1,7.843,4.149a8.579,8.579,0,0,0,.468,1.877,1.336,1.336,0,0,1-.3,1.41l-.849.849a10.69,10.69,0,0,0,4.009,4.009l.849-.849a1.336,1.336,0,0,1,1.41-.3,8.579,8.579,0,0,0,1.877.468,1.336,1.336,0,0,1,1.149,1.356Z" transform="translate(-2.667 -2.5)" fill="none" stroke="#000" stroke-linecap="round" stroke-linejoin="round" stroke-width="1"/>
</svg>
