<svg xmlns="http://www.w3.org/2000/svg" width="70.746" height="66.97" viewBox="0 0 70.746 66.97">
  <g id="Group_15" data-name="Group 15" transform="translate(-7.133 177.063)">
    <path id="Path_12" data-name="Path 12" d="M58.228-107.611v-7.049l-6.248-.519a19.174,19.174,0,0,0-2.464-6.4l4.175-4.94L48.719-131.5l-4.788,4.057a19,19,0,0,0-6.26-2.773l-.535-6.455H30.1l-.519,6.26a19.074,19.074,0,0,0-6.385,2.472l-4.932-4.186-4.975,4.983,4.054,4.8a19.01,19.01,0,0,0-2.769,6.272l-6.443.539v7.045l6.248.523a19.12,19.12,0,0,0,2.464,6.4L12.67-96.629l4.975,4.983L22.429-95.7a19,19,0,0,0,6.26,2.773l.535,6.455h7.033l.519-6.264a18.984,18.984,0,0,0,6.385-2.468L48.1-91.026l4.971-4.983-4.05-4.8a19.135,19.135,0,0,0,2.769-6.272Z" transform="translate(0 -24.617)" fill="none" stroke="#efd6b6" stroke-miterlimit="2" stroke-width="2"/>
    <path id="Path_14" data-name="Path 14" d="M67.9-84.6a7.806,7.806,0,0,1-7.8,7.814A7.806,7.806,0,0,1,52.3-84.6a7.806,7.806,0,0,1,7.8-7.814A7.806,7.806,0,0,1,67.9-84.6Z" transform="translate(-26.921 -51.593)" fill="#fff"/>
    <path id="Path_15" data-name="Path 15" d="M67.9-84.6a7.806,7.806,0,0,1-7.8,7.814A7.806,7.806,0,0,1,52.3-84.6a7.806,7.806,0,0,1,7.8-7.814A7.806,7.806,0,0,1,67.9-84.6Z" transform="translate(-26.921 -51.593)" fill="#efd6b6"/>
    <path id="Path_16" data-name="Path 16" d="M135.745-160.349a4.313,4.313,0,0,1-4.311-4.315,4.317,4.317,0,0,1,4.311-4.319,4.313,4.313,0,0,1,4.307,4.319A4.31,4.31,0,0,1,135.745-160.349Zm12.372-1.851v-4.518l-3.741-.309a8.9,8.9,0,0,0-.648-1.691l2.507-2.972-3.187-3.194-2.866,2.433a8.616,8.616,0,0,0-1.656-.734l-.324-3.878h-4.5l-.312,3.749a8.881,8.881,0,0,0-1.687.652l-2.964-2.511-3.187,3.191,2.425,2.874a8.978,8.978,0,0,0-.734,1.656l-3.866.324v4.514l3.741.312a8.9,8.9,0,0,0,.648,1.691l-2.507,2.972,3.187,3.194,2.866-2.433a8.616,8.616,0,0,0,1.656.734l.32,3.878h4.51l.309-3.749a8.878,8.878,0,0,0,1.687-.652l2.964,2.511,3.187-3.194-2.425-2.87a8.977,8.977,0,0,0,.734-1.656Z" transform="translate(-70.237)" fill="#efd6b6"/>
  </g>
</svg>
