<svg xmlns="http://www.w3.org/2000/svg" width="63" height="64" viewBox="0 0 63 64">
  <g id="Group_80" data-name="Group 80" transform="translate(-431 -5430)">
    <g id="Ellipse_3" data-name="Ellipse 3" transform="translate(431 5430)" fill="none" stroke="#000" stroke-width="1">
      <ellipse cx="31.5" cy="32" rx="31.5" ry="32" stroke="none"/>
      <ellipse cx="31.5" cy="32" rx="31" ry="31.5" fill="none"/>
    </g>
    <g id="Group_22" data-name="Group 22" transform="translate(448.039 5548.146)">
      <path id="Path_61" data-name="Path 61" d="M2.236-72.39h24.45v-29.846H2.236Z" transform="translate(0)" fill="none"/>
      <path id="Path_62" data-name="Path 62" d="M2.236-72.39h24.45v-29.846H2.236Z" transform="translate(0)" fill="none" stroke="#000" stroke-miterlimit="2" stroke-width="1"/>
      <path id="Path_63" data-name="Path 63" d="M2.236-43.92h24.45" transform="translate(0 -39.549)" fill="none" stroke="#000" stroke-miterlimit="2" stroke-width="1"/>
      <path id="Path_64" data-name="Path 64" d="M40.225-43.92v11.08" transform="translate(-25.764 -39.549)" fill="none" stroke="#000" stroke-miterlimit="2" stroke-width="1"/>
      <path id="Path_65" data-name="Path 65" d="M23.687-29.555A1.352,1.352,0,0,1,22.334-28.2a1.352,1.352,0,0,1-1.352-1.352,1.352,1.352,0,0,1,1.352-1.352A1.352,1.352,0,0,1,23.687-29.555Z" transform="translate(-12.713 -48.374)" fill="none"/>
      <path id="Path_66" data-name="Path 66" d="M23.687-29.555A1.352,1.352,0,0,1,22.334-28.2a1.352,1.352,0,0,1-1.352-1.352,1.352,1.352,0,0,1,1.352-1.352A1.352,1.352,0,0,1,23.687-29.555Z" transform="translate(-12.713 -48.374)" fill="none" stroke="#000" stroke-miterlimit="2" stroke-width="1"/>
      <path id="Path_67" data-name="Path 67" d="M53.768-29.555A1.352,1.352,0,0,1,52.415-28.2a1.352,1.352,0,0,1-1.352-1.352,1.352,1.352,0,0,1,1.352-1.352A1.352,1.352,0,0,1,53.768-29.555Z" transform="translate(-33.114 -48.374)" fill="none"/>
      <path id="Path_68" data-name="Path 68" d="M53.768-29.555A1.352,1.352,0,0,1,52.415-28.2a1.352,1.352,0,0,1-1.352-1.352,1.352,1.352,0,0,1,1.352-1.352A1.352,1.352,0,0,1,53.768-29.555Z" transform="translate(-33.114 -48.374)" fill="none" stroke="#000" stroke-miterlimit="2" stroke-width="1"/>
      <path id="Path_69" data-name="Path 69" d="M2.236-72.177h24.45" transform="translate(0 -20.386)" fill="none" stroke="#000" stroke-miterlimit="2" stroke-width="1"/>
      <path id="Path_70" data-name="Path 70" d="M13.505-87.73h2.434v-7.38H13.505Z" transform="translate(-7.643 -4.833)" fill="none"/>
      <path id="Path_71" data-name="Path 71" d="M13.505-87.73h2.434v-7.38H13.505Z" transform="translate(-7.643 -4.833)" fill="none" stroke="#000" stroke-miterlimit="2" stroke-width="1"/>
      <path id="Path_72" data-name="Path 72" d="M63.927-59.474h2.434v-7.38H63.927Z" transform="translate(-41.838 -23.996)" fill="none"/>
      <path id="Path_73" data-name="Path 73" d="M63.927-59.474h2.434v-7.38H63.927Z" transform="translate(-41.838 -23.996)" fill="none" stroke="#000" stroke-miterlimit="2" stroke-width="1"/>
      <path id="Path_74" data-name="Path 74" d="M40.225-59.474h2.434v-7.38H40.225Z" transform="translate(-25.764 -23.996)" fill="none"/>
      <path id="Path_75" data-name="Path 75" d="M40.225-59.474h2.434v-7.38H40.225Z" transform="translate(-25.764 -23.996)" fill="none" stroke="#000" stroke-miterlimit="2" stroke-width="1"/>
      <path id="Path_76" data-name="Path 76" d="M32.661-59.474H35.1v-7.38H32.661Z" transform="translate(-20.634 -23.996)" fill="none"/>
      <path id="Path_77" data-name="Path 77" d="M32.661-59.474H35.1v-7.38H32.661Z" transform="translate(-20.634 -23.996)" fill="none" stroke="#000" stroke-miterlimit="2" stroke-width="1"/>
      <path id="Path_78" data-name="Path 78" d="M40.225-87.73h2.434v-7.38H40.225Z" transform="translate(-25.764 -4.833)" fill="none"/>
      <path id="Path_79" data-name="Path 79" d="M40.225-87.73h2.434v-7.38H40.225Z" transform="translate(-25.764 -4.833)" fill="none" stroke="#000" stroke-miterlimit="2" stroke-width="1"/>
      <path id="Path_80" data-name="Path 80" d="M47.788-87.73h2.434v-7.38H47.788Z" transform="translate(-30.893 -4.833)" fill="none"/>
      <path id="Path_81" data-name="Path 81" d="M47.788-87.73h2.434v-7.38H47.788Z" transform="translate(-30.893 -4.833)" fill="none" stroke="#000" stroke-miterlimit="2" stroke-width="1"/>
      <path id="Path_82" data-name="Path 82" d="M55.351-87.73h2.434v-7.38H55.351Z" transform="translate(-36.022 -4.833)" fill="none"/>
      <path id="Path_83" data-name="Path 83" d="M55.351-87.73h2.434v-7.38H55.351Z" transform="translate(-36.022 -4.833)" fill="none" stroke="#000" stroke-miterlimit="2" stroke-width="1"/>
      <path id="Path_84" data-name="Path 84" d="M21.068-90.051l3.381,5.913" transform="translate(-12.772 -8.264)" fill="none" stroke="#000" stroke-miterlimit="2" stroke-width="1"/>
      <path id="Path_85" data-name="Path 85" d="M55.546-61.509l-3.977,5.66" transform="translate(-33.457 -27.621)" fill="none" stroke="#000" stroke-miterlimit="2" stroke-width="1"/>
      <path id="Path_86" data-name="Path 86" d="M11.232-9.491v2.335" transform="translate(-6.101 -62.899)" fill="none" stroke="#000" stroke-miterlimit="2" stroke-width="1"/>
      <path id="Path_87" data-name="Path 87" d="M69.217-9.491v2.335" transform="translate(-45.426 -62.899)" fill="none" stroke="#000" stroke-miterlimit="2" stroke-width="1"/>
    </g>
  </g>
</svg>
