<svg xmlns="http://www.w3.org/2000/svg" width="63" height="64" viewBox="0 0 63 64">
  <g id="Group_82" data-name="Group 82" transform="translate(-431 -5588)">
    <g id="Ellipse_5" data-name="Ellipse 5" transform="translate(431 5588)" fill="none" stroke="#000" stroke-width="1">
      <ellipse cx="31.5" cy="32" rx="31.5" ry="32" stroke="none"/>
      <ellipse cx="31.5" cy="32" rx="31" ry="31.5" fill="none"/>
    </g>
    <g id="Group_24" data-name="Group 24" transform="translate(445.446 5689.34)">
      <path id="Path_108" data-name="Path 108" d="M4.032-55.055h-1.8v-27.9h30.9v27.9H21.433" fill="none" stroke="#000" stroke-miterlimit="2" stroke-width="1"/>
      <path id="Path_109" data-name="Path 109" d="M65.455-34.6H61.018a3.757,3.757,0,0,0-3.692-3.065,3.2,3.2,0,0,0-.53.041v-4.425c.175-.011.349-.017.53-.017A8.157,8.157,0,0,1,65.455-34.6Z" transform="translate(-34.539 -25.887)" fill="#fff"/>
      <path id="Path_110" data-name="Path 110" d="M64.56-39.509a8.156,8.156,0,0,1,4.329,6.529H64.452a3.763,3.763,0,0,0-2.231-2.77" transform="translate(-37.972 -27.503)" fill="none" stroke="#000" stroke-miterlimit="2" stroke-width="1"/>
      <path id="Path_111" data-name="Path 111" d="M51.322-42.039l-1.138.124-.427-3.914,5.356-.584L55.54-42.5l-2.339.255" transform="translate(-30.082 -23.132)" fill="none" stroke="#000" stroke-miterlimit="2" stroke-width="1"/>
      <path id="Path_112" data-name="Path 112" d="M19.851-38.939v.082a1.294,1.294,0,0,1-.9,1.234l-.988.315a2.544,2.544,0,0,0-1.593,1.486L15.14-32.728,11.931-29.2a.9.9,0,0,0-.391,1.1.864.864,0,0,0,1.184.439s4.172-3.8,4.326-4.156l1.039-2.358.23,4.766H24.11l.542-4.766.046-1.1,3.025-.247a1.358,1.358,0,0,0,1.247-1.353v-4.448a.933.933,0,0,0-.933-.933.933.933,0,0,0-.933.933V-37.7l-3.311.08a1.294,1.294,0,0,1-.9-1.234v-.082" transform="translate(-5.85 -25.76)" fill="none" stroke="#000" stroke-miterlimit="2" stroke-width="1"/>
      <path id="Path_113" data-name="Path 113" d="M36.351-46.058c0,1.759-.838,3.184-2.6,3.184s-2.6-1.425-2.6-3.184.838-3.184,2.6-3.184S36.351-47.817,36.351-46.058Z" transform="translate(-18.309 -21.341)" fill="none" stroke="#000" stroke-miterlimit="2" stroke-width="1"/>
      <path id="Path_114" data-name="Path 114" d="M73.622-51.266l-.989.99-.99-.99.99-.989Z" transform="translate(-43.937 -19.434)" fill="none" stroke="#000" stroke-miterlimit="2" stroke-width="1"/>
      <path id="Path_115" data-name="Path 115" d="M56.911-57.638,55.3-56.022,53.68-57.638,55.3-59.253Z" transform="translate(-32.565 -15.004)" fill="none" stroke="#000" stroke-miterlimit="2" stroke-width="1"/>
      <path id="Path_116" data-name="Path 116" d="M8.045-63.644v-13.5H33.957" transform="translate(-3.677 -3.677)" fill="none" stroke="#000" stroke-miterlimit="2" stroke-width="1"/>
    </g>
  </g>
</svg>
