<svg xmlns="http://www.w3.org/2000/svg" width="63" height="64" viewBox="0 0 63 64">
  <g id="Group_78" data-name="Group 78" transform="translate(-1207 -5509)">
    <g id="Ellipse_10" data-name="Ellipse 10" transform="translate(1207 5509)" fill="none" stroke="#000" stroke-width="1">
      <ellipse cx="31.5" cy="32" rx="31.5" ry="32" stroke="none"/>
      <ellipse cx="31.5" cy="32" rx="31" ry="31.5" fill="none"/>
    </g>
    <g id="Group_29" data-name="Group 29" transform="translate(1223.054 5611.34)">
      <g id="Group_74" data-name="Group 74" transform="translate(-2.025 6.041)">
        <path id="Path_219" data-name="Path 219" d="M1-61.01H33.943V-90.491" transform="translate(34.943 -151.501) rotate(180)" fill="none" stroke="#000" stroke-linecap="round" stroke-linejoin="round" stroke-width="1"/>
        <path id="Path_221" data-name="Path 221" d="M7.645-72.422,1-65.778v-4.915l4.189-4.185Z" transform="translate(0 -10.47)" fill="none" stroke="#000" stroke-linecap="round" stroke-linejoin="round" stroke-width="1"/>
        <path id="Path_223" data-name="Path 223" d="M21.236-62.355,18.78-59.9l-5.067-5.067,2.457-2.457Z" transform="translate(-8.525 -15.469)" fill="none" stroke="#000" stroke-linecap="round" stroke-linejoin="round" stroke-width="1"/>
        <path id="Path_225" data-name="Path 225" d="M7.645-57.509,1-50.864v-4.915l4.189-4.189Z" transform="translate(0 -20.468)" fill="none" stroke="#000" stroke-linecap="round" stroke-linejoin="round" stroke-width="1"/>
        <path id="Path_227" data-name="Path 227" d="M21.236-47.44,18.78-44.983,13.713-50.05l2.457-2.457Z" transform="translate(-8.525 -25.471)" fill="none" stroke="#000" stroke-linecap="round" stroke-linejoin="round" stroke-width="1"/>
        <path id="Path_229" data-name="Path 229" d="M7.645-42.592,5.189-40.137,1-35.948v-4.915l4.189-4.185Z" transform="translate(0 -30.473)" fill="none" stroke="#000" stroke-linecap="round" stroke-linejoin="round" stroke-width="1"/>
        <path id="Path_233" data-name="Path 233" d="M7.645-27.68,5.189-25.224,1-21.035V-25.95l4.189-4.189Z" transform="translate(0 -40.471)" fill="none" stroke="#000" stroke-linecap="round" stroke-linejoin="round" stroke-width="1"/>
        <path id="Path_237" data-name="Path 237" d="M7.645-12.763,5.417-10.535H1v-.5l4.189-4.185Z" transform="translate(0 -50.476)" fill="none" stroke="#000" stroke-linecap="round" stroke-linejoin="round" stroke-width="1"/>
        <path id="Path_241" data-name="Path 241" d="M31.551-71.107l-2.457-2.457L36-80.473l2.457,2.457Z" transform="translate(-18.839 -6.718)" fill="none" stroke="#000" stroke-linecap="round" stroke-linejoin="round" stroke-width="1"/>
        <path id="Path_245" data-name="Path 245" d="M7.645-87.339,5.189-84.883,1-80.694v-4.915L5.189-89.8Z" transform="translate(0 -0.465)" fill="none" stroke="#000" stroke-linecap="round" stroke-linejoin="round" stroke-width="1"/>
        <path id="Path_246" data-name="Path 246" d="M21.236-77.27,18.78-74.813,13.713-79.88l2.457-2.457Z" transform="translate(-8.525 -5.468)" fill="#fff"/>
        <path id="Path_247" data-name="Path 247" d="M21.236-77.27,18.78-74.813,13.713-79.88l2.457-2.457Z" transform="translate(-8.525 -5.468)" fill="none" stroke="#000" stroke-linecap="round" stroke-linejoin="round" stroke-width="1"/>
        <path id="Path_249" data-name="Path 249" d="M5.417-90.491,1-86.074v-4.417Z" fill="none" stroke="#000" stroke-linecap="round" stroke-linejoin="round" stroke-width="1"/>
        <path id="Path_251" data-name="Path 251" d="M21.239-87.651,18.78-85.195l-5.065-5.068.228-.228H18.4Z" transform="translate(-8.526)" fill="none" stroke="#000" stroke-linecap="round" stroke-linejoin="round" stroke-width="1"/>
        <path id="Path_253" data-name="Path 253" d="M38.457-89.647l-6.908,6.908L29.09-85.195l2.459-2.456,2.84-2.84h3.224Z" transform="translate(-18.836)" fill="none" stroke="#000" stroke-linecap="round" stroke-linejoin="round" stroke-width="1"/>
        <path id="Path_255" data-name="Path 255" d="M57.591-82.863l-2.457,2.457-5.067-5.067,2.457-2.457Z" transform="translate(-32.903 -1.717)" fill="none" stroke="#000" stroke-linecap="round" stroke-linejoin="round" stroke-width="1"/>
        <path id="Path_269" data-name="Path 269" d="M67.906-76.7l-2.457-2.457,6.909-6.909,2.457,2.457Z" transform="translate(-43.218 -2.967)" fill="none" stroke="#000" stroke-linecap="round" stroke-linejoin="round" stroke-width="1"/>
        <path id="Path_271" data-name="Path 271" d="M91.227-76.261v4.912l-4.8-4.8,2.456-2.456Z" transform="translate(-57.285 -7.97)" fill="none" stroke="#000" stroke-linecap="round" stroke-linejoin="round" stroke-width="1"/>
        <path id="Path_276" data-name="Path 276" d="M71.878-90.491l-1,1-1-1Z" transform="translate(-46.193)" fill="#fff"/>
        <path id="Path_277" data-name="Path 277" d="M71.878-90.491l-1,1-1-1Z" transform="translate(-46.193)" fill="none" stroke="#000" stroke-linecap="round" stroke-linejoin="round" stroke-width="1"/>
        <path id="Path_278" data-name="Path 278" d="M98.262-90.491v1.345l-1.345-1.345Z" transform="translate(-64.32)" fill="#fff"/>
        <path id="Path_279" data-name="Path 279" d="M98.262-90.491v1.345l-1.345-1.345Z" transform="translate(-64.32)" fill="none" stroke="#000" stroke-linecap="round" stroke-linejoin="round" stroke-width="1"/>
        <path id="Path_281" data-name="Path 281" d="M73.813-90.491l-1.456,1.459L67.9-84.579l-2.459-2.459L67.9-89.494l.994-1Z" transform="translate(-43.215)" fill="none" stroke="#000" stroke-linecap="round" stroke-linejoin="round" stroke-width="1"/>
        <path id="Path_283" data-name="Path 283" d="M91.227-89.146v4.915l-4.8-4.8,1.456-1.459h2Z" transform="translate(-57.285)" fill="none" stroke="#000" stroke-linecap="round" stroke-linejoin="round" stroke-width="1"/>
      </g>
      <path id="Path_109" data-name="Path 109" d="M65.455-34.6H61.018a3.757,3.757,0,0,0-3.692-3.065,3.2,3.2,0,0,0-.53.041v-4.425c.175-.011.349-.017.53-.017A8.157,8.157,0,0,1,65.455-34.6Z" transform="translate(-34.539 -25.887)" fill="#fff"/>
      <path id="Path_110" data-name="Path 110" d="M64.56-39.509a8.156,8.156,0,0,1,4.329,6.529H64.452a3.763,3.763,0,0,0-2.231-2.77" transform="translate(-37.972 -27.503)" fill="none" stroke="#000" stroke-miterlimit="2" stroke-width="1"/>
      <path id="Path_111" data-name="Path 111" d="M51.322-42.039l-1.138.124-.427-3.914,5.356-.584L55.54-42.5l-2.339.255" transform="translate(-30.082 -23.132)" fill="none" stroke="#000" stroke-miterlimit="2" stroke-width="1"/>
      <path id="Path_112" data-name="Path 112" d="M19.851-38.939v.082a1.294,1.294,0,0,1-.9,1.234l-.988.315a2.544,2.544,0,0,0-1.593,1.486L15.14-32.728,11.931-29.2a.9.9,0,0,0-.391,1.1.864.864,0,0,0,1.184.439s4.172-3.8,4.326-4.156l1.039-2.358.23,4.766H24.11l.542-4.766.046-1.1,3.025-.247a1.358,1.358,0,0,0,1.247-1.353v-4.448a.933.933,0,0,0-.933-.933.933.933,0,0,0-.933.933V-37.7l-3.311.08a1.294,1.294,0,0,1-.9-1.234v-.082" transform="translate(-5.85 -25.76)" fill="none" stroke="#000" stroke-miterlimit="2" stroke-width="1"/>
      <path id="Path_113" data-name="Path 113" d="M36.351-46.058c0,1.759-.838,3.184-2.6,3.184s-2.6-1.425-2.6-3.184.838-3.184,2.6-3.184S36.351-47.817,36.351-46.058Z" transform="translate(-18.309 -21.341)" fill="none" stroke="#000" stroke-miterlimit="2" stroke-width="1"/>
      <path id="Path_114" data-name="Path 114" d="M73.622-51.266l-.989.99-.99-.99.99-.989Z" transform="translate(-43.937 -19.434)" fill="none" stroke="#000" stroke-miterlimit="2" stroke-width="1"/>
      <path id="Path_115" data-name="Path 115" d="M56.911-57.638,55.3-56.022,53.68-57.638,55.3-59.253Z" transform="translate(-37.236 -15.667)" fill="none" stroke="#000" stroke-miterlimit="2" stroke-width="1"/>
    </g>
  </g>
</svg>
