<svg xmlns="http://www.w3.org/2000/svg" width="108.321" height="86.727" viewBox="0 0 108.321 86.727">
  <g id="Group_16" data-name="Group 16" transform="translate(-7.133 186.8)">
    <path id="Path_18" data-name="Path 18" d="M41.239-58.541V-70.925s.752-1.5,1.6-1.5a1.6,1.6,0,0,1,1.251.612,5.41,5.41,0,0,0,4.3,2.121,5.433,5.433,0,0,0,5.426-5.439,5.431,5.431,0,0,0-5.426-5.438,5.417,5.417,0,0,0-4.3,2.116,1.6,1.6,0,0,1-1.251.616c-.851,0-1.6-1.5-1.6-1.5v-12.38H28.828a1.607,1.607,0,0,1-1.442-1.6A1.609,1.609,0,0,1,28-94.565a5.43,5.43,0,0,0,2.116-4.3,5.433,5.433,0,0,0-5.43-5.438,5.434,5.434,0,0,0-5.428,5.438,5.435,5.435,0,0,0,2.113,4.3,1.6,1.6,0,0,1,.616,1.256,1.609,1.609,0,0,1-1.444,1.6H8.133v33.172Z" transform="translate(0 -42.567)" fill="none" stroke="#efd6b6" stroke-miterlimit="2" stroke-width="2"/>
    <path id="Path_19" data-name="Path 19" d="M48.378-136.58a5.414,5.414,0,0,0-4.293,2.12,1.6,1.6,0,0,1-1.253.612,1.607,1.607,0,0,1-1.592-1.441v-12.438H8.133v33.174H20.989a1.58,1.58,0,0,0,.2-.1.1.1,0,0,1,.025-.011,2.033,2.033,0,0,0,.177-.127s.007-.007.012-.01a1.651,1.651,0,0,0,.267-.284c.014-.019.029-.034.04-.053a1.119,1.119,0,0,0,.068-.115,1.232,1.232,0,0,0,.066-.127c.017-.036.03-.071.044-.107.018-.058.036-.111.052-.169,0-.034.015-.064.021-.1a1.719,1.719,0,0,0,.027-.282,1.607,1.607,0,0,0-.616-1.256,5.433,5.433,0,0,1-2.113-4.3,5.436,5.436,0,0,1,5.428-5.439,5.435,5.435,0,0,1,5.43,5.439,5.428,5.428,0,0,1-2.116,4.3,1.6,1.6,0,0,0-.611,1.254,1.493,1.493,0,0,0,.029.282.785.785,0,0,0,.021.1c.013.057.03.11.05.169.012.036.028.071.044.107a.947.947,0,0,0,.066.127.9.9,0,0,0,.067.115c.013.019.027.034.04.053a1.618,1.618,0,0,0,.267.284s.008.008.013.01a1.253,1.253,0,0,0,.175.123l.024.016a1.841,1.841,0,0,0,.2.1H41.239v-12.44a1.608,1.608,0,0,1,1.592-1.442,1.6,1.6,0,0,1,1.252.614,5.415,5.415,0,0,0,4.295,2.12,5.436,5.436,0,0,0,5.429-5.441A5.435,5.435,0,0,0,48.378-136.58Z" transform="translate(0 -19.823)" fill="none"/>
    <path id="Path_20" data-name="Path 20" d="M48.378-136.58a5.414,5.414,0,0,0-4.293,2.12,1.6,1.6,0,0,1-1.253.612,1.607,1.607,0,0,1-1.592-1.441v-12.438H8.133v33.174H20.989a1.58,1.58,0,0,0,.2-.1.1.1,0,0,1,.025-.011,2.033,2.033,0,0,0,.177-.127s.007-.007.012-.01a1.651,1.651,0,0,0,.267-.284c.014-.019.029-.034.04-.053a1.119,1.119,0,0,0,.068-.115,1.232,1.232,0,0,0,.066-.127c.017-.036.03-.071.044-.107.018-.058.036-.111.052-.169,0-.034.015-.064.021-.1a1.719,1.719,0,0,0,.027-.282,1.607,1.607,0,0,0-.616-1.256,5.433,5.433,0,0,1-2.113-4.3,5.436,5.436,0,0,1,5.428-5.439,5.435,5.435,0,0,1,5.43,5.439,5.428,5.428,0,0,1-2.116,4.3,1.6,1.6,0,0,0-.611,1.254,1.493,1.493,0,0,0,.029.282.785.785,0,0,0,.021.1c.013.057.03.11.05.169.012.036.028.071.044.107a.947.947,0,0,0,.066.127.9.9,0,0,0,.067.115c.013.019.027.034.04.053a1.618,1.618,0,0,0,.267.284s.008.008.013.01a1.253,1.253,0,0,0,.175.123l.024.016a1.841,1.841,0,0,0,.2.1H41.239v-12.44a1.608,1.608,0,0,1,1.592-1.442,1.6,1.6,0,0,1,1.252.614,5.415,5.415,0,0,0,4.295,2.12,5.436,5.436,0,0,0,5.429-5.441A5.435,5.435,0,0,0,48.378-136.58Z" transform="translate(0 -19.823)" fill="none" stroke="#efd6b6" stroke-miterlimit="2" stroke-width="2"/>
    <path id="Path_21" data-name="Path 21" d="M98.39-77.912a1.605,1.605,0,0,0-1.172,1.545,1.6,1.6,0,0,0,.613,1.259A5.43,5.43,0,0,1,99.94-70.8,5.437,5.437,0,0,1,94.5-65.364a5.436,5.436,0,0,1-5.425-5.45,5.425,5.425,0,0,1,2.12-4.3,1.6,1.6,0,0,0,.614-1.257,1.6,1.6,0,0,0-1.168-1.546l-12.686-.017-.014,12.444a1.607,1.607,0,0,0,1.593,1.453,1.6,1.6,0,0,0,1.257-.616,5.4,5.4,0,0,1,4.3-2.113,5.441,5.441,0,0,1,5.428,5.449,5.439,5.439,0,0,1-5.44,5.438,5.419,5.419,0,0,1-4.3-2.125,1.6,1.6,0,0,0-1.251-.618,1.612,1.612,0,0,0-1.6,1.451l-.014,12.442,33.137.035.036-33.2Z" transform="translate(-36.554 -56.378)" fill="none"/>
    <path id="Path_22" data-name="Path 22" d="M98.39-77.912a1.605,1.605,0,0,0-1.172,1.545,1.6,1.6,0,0,0,.613,1.259A5.43,5.43,0,0,1,99.94-70.8,5.437,5.437,0,0,1,94.5-65.364a5.436,5.436,0,0,1-5.425-5.45,5.425,5.425,0,0,1,2.12-4.3,1.6,1.6,0,0,0,.614-1.257,1.6,1.6,0,0,0-1.168-1.546l-12.686-.017-.014,12.444a1.607,1.607,0,0,0,1.593,1.453,1.6,1.6,0,0,0,1.257-.616,5.4,5.4,0,0,1,4.3-2.113,5.441,5.441,0,0,1,5.428,5.449,5.439,5.439,0,0,1-5.44,5.438,5.419,5.419,0,0,1-4.3-2.125,1.6,1.6,0,0,0-1.251-.618,1.612,1.612,0,0,0-1.6,1.451l-.014,12.442,33.137.035.036-33.2Z" transform="translate(-36.554 -56.378)" fill="none" stroke="#efd6b6" stroke-miterlimit="2" stroke-width="2"/>
    <path id="Path_24" data-name="Path 24" d="M106.208-171.4l7.8,28.4L165.6-157.171l-7.8-28.4Z" transform="translate(-51.372 0)" fill="none" stroke="#efd6b6" stroke-miterlimit="2" stroke-width="2"/>
    <path id="Path_25" data-name="Path 25" d="M126.364-142.417a3.932,3.932,0,0,0-4-2.2l-3.987-14.513a3.92,3.92,0,0,0,2.319-3.873L158.2-173.311a3.919,3.919,0,0,0,3.967,2.146l3.988,14.515a3.922,3.922,0,0,0-2.311,3.936Z" transform="translate(-57.744 -6.422)" fill="none" stroke="#efd6b6" stroke-miterlimit="2" stroke-width="2"/>
    <path id="Path_26" data-name="Path 26" d="M167.713-149.369a6.221,6.221,0,0,1-4.342,7.653,6.225,6.225,0,0,1-7.647-4.359,6.225,6.225,0,0,1,4.346-7.655A6.221,6.221,0,0,1,167.713-149.369Z" transform="translate(-77.19 -16.561)" fill="none"/>
    <path id="Path_27" data-name="Path 27" d="M167.713-149.369a6.221,6.221,0,0,1-4.342,7.653,6.225,6.225,0,0,1-7.647-4.359,6.225,6.225,0,0,1,4.346-7.655A6.221,6.221,0,0,1,167.713-149.369Z" transform="translate(-77.19 -16.561)" fill="none" stroke="#efd6b6" stroke-miterlimit="2" stroke-width="2"/>
    <path id="Path_28" data-name="Path 28" d="M187.9-148.859l8.862-2.435" transform="translate(-94.16 -17.954)" fill="none" stroke="#efd6b6" stroke-miterlimit="2" stroke-width="2"/>
    <path id="Path_29" data-name="Path 29" d="M139.483-135.556l-8.862,2.435" transform="translate(-64.159 -26.198)" fill="none" stroke="#efd6b6" stroke-miterlimit="2" stroke-width="2"/>
  </g>
</svg>
