<svg xmlns="http://www.w3.org/2000/svg" width="63" height="64" viewBox="0 0 63 64">
  <g id="Group_81" data-name="Group 81" transform="translate(-431 -5509)">
    <g id="Ellipse_4" data-name="Ellipse 4" transform="translate(431 5509)" fill="none" stroke="#000" stroke-width="1">
      <ellipse cx="31.5" cy="32" rx="31.5" ry="32" stroke="none"/>
      <ellipse cx="31.5" cy="32" rx="31" ry="31.5" fill="none"/>
    </g>
    <g id="Group_23" data-name="Group 23" transform="translate(447.134 5627.635)">
      <path id="Path_88" data-name="Path 88" d="M1-72.269H29.731V-101H1Z" fill="none"/>
      <path id="Path_89" data-name="Path 89" d="M1-72.269H29.731V-101H1Z" fill="none" stroke="#000" stroke-linecap="round" stroke-linejoin="round" stroke-width="1"/>
      <path id="Path_90" data-name="Path 90" d="M11.448-101,1-91.045" fill="none" stroke="#000" stroke-linecap="round" stroke-linejoin="round" stroke-width="1"/>
      <path id="Path_91" data-name="Path 91" d="M19.037-101,1-82.174" fill="none" stroke="#000" stroke-linecap="round" stroke-linejoin="round" stroke-width="1"/>
      <path id="Path_92" data-name="Path 92" d="M1-73.994,27.711-101" fill="none" stroke="#000" stroke-linecap="round" stroke-linejoin="round" stroke-width="1"/>
      <path id="Path_93" data-name="Path 93" d="M25.546-56.377,47.225-78.7" transform="translate(-17.494 -15.892)" fill="none" stroke="#000" stroke-linecap="round" stroke-linejoin="round" stroke-width="1"/>
      <path id="Path_94" data-name="Path 94" d="M67.627-52.287,54.173-37.552" transform="translate(-37.896 -34.717)" fill="none" stroke="#000" stroke-linecap="round" stroke-linejoin="round" stroke-width="1"/>
      <path id="Path_95" data-name="Path 95" d="M86.208-22.785l-5.963,6.259" transform="translate(-56.477 -55.743)" fill="none" stroke="#000" stroke-linecap="round" stroke-linejoin="round" stroke-width="1"/>
      <path id="Path_96" data-name="Path 96" d="M40.439-76.641,44.6-72.293" transform="translate(-28.108 -17.36)" fill="none" stroke="#000" stroke-linecap="round" stroke-linejoin="round" stroke-width="1"/>
      <path id="Path_97" data-name="Path 97" d="M25.906-32.186l4.46,4.261" transform="translate(-17.75 -49.043)" fill="none" stroke="#000" stroke-linecap="round" stroke-linejoin="round" stroke-width="1"/>
      <path id="Path_98" data-name="Path 98" d="M67.525-74.265l4.449,4.048" transform="translate(-47.412 -19.054)" fill="none" stroke="#000" stroke-linecap="round" stroke-linejoin="round" stroke-width="1"/>
      <path id="Path_99" data-name="Path 99" d="M68.454-45.187l3.972,3.851" transform="translate(-48.074 -39.777)" fill="none" stroke="#000" stroke-linecap="round" stroke-linejoin="round" stroke-width="1"/>
      <path id="Path_100" data-name="Path 100" d="M67-15.052l3.8,4.037" transform="translate(-47.04 -61.254)" fill="none" stroke="#000" stroke-linecap="round" stroke-linejoin="round" stroke-width="1"/>
      <path id="Path_101" data-name="Path 101" d="M1-30.331l3.382,3.283" transform="translate(0 -50.365)" fill="none" stroke="#000" stroke-linecap="round" stroke-linejoin="round" stroke-width="1"/>
      <path id="Path_102" data-name="Path 102" d="M83.217-90.13l4.31,4.107" transform="translate(-58.595 -7.747)" fill="none" stroke="#000" stroke-linecap="round" stroke-linejoin="round" stroke-width="1"/>
      <path id="Path_103" data-name="Path 103" d="M39.718-46.151,44.1-41.88" transform="translate(-27.594 -39.09)" fill="none" stroke="#000" stroke-linecap="round" stroke-linejoin="round" stroke-width="1"/>
      <path id="Path_104" data-name="Path 104" d="M33.667-97.479l4.024,3.818" transform="translate(-23.281 -2.509)" fill="none" stroke="#000" stroke-linecap="round" stroke-linejoin="round" stroke-width="1"/>
      <path id="Path_105" data-name="Path 105" d="M4.329-85.171,1-88.307" transform="translate(0 -9.046)" fill="none" stroke="#000" stroke-linecap="round" stroke-linejoin="round" stroke-width="1"/>
      <path id="Path_106" data-name="Path 106" d="M4.278-55.035,1-58.119" transform="translate(0 -30.561)" fill="none" stroke="#000" stroke-linecap="round" stroke-linejoin="round" stroke-width="1"/>
      <path id="Path_107" data-name="Path 107" d="M25.489-61.037l4.088,4.277" transform="translate(-17.453 -28.481)" fill="none" stroke="#000" stroke-linecap="round" stroke-linejoin="round" stroke-width="1"/>
    </g>
  </g>
</svg>
