<svg xmlns="http://www.w3.org/2000/svg" width="63" height="63" viewBox="0 0 63 63">
  <g id="Group_75" data-name="Group 75" transform="translate(-1207 -5273)">
    <g id="Ellipse_6" data-name="Ellipse 6" transform="translate(1207 5273)" fill="none" stroke="#000" stroke-width="1">
      <circle cx="31.5" cy="31.5" r="31.5" stroke="none"/>
      <circle cx="31.5" cy="31.5" r="31" fill="none"/>
    </g>
    <g id="Group_70" data-name="Group 70" transform="translate(1216.19 5345.397)">
      <path id="Path_117" data-name="Path 117" d="M3.382-50.377H45.858V-52.47H3.382Z" transform="translate(-1.269)" fill="rgba(0,0,0,0)" stroke="#000" stroke-linecap="round" stroke-linejoin="round" stroke-width="1"/>
      <path id="Path_118" data-name="Path 118" d="M65.776-19.238H77.988V-21.33H65.776Z" transform="translate(-34.513 -16.591)" fill="#fff"/>
      <path id="Path_119" data-name="Path 119" d="M1-19.238H7.294V-21.33H1Z" transform="translate(0 -16.591)" fill="rgba(0,0,0,0)" stroke="#000" stroke-linecap="round" stroke-linejoin="round" stroke-width="1"/>
      <path id="Path_120" data-name="Path 120" d="M21.117-19.238h6.294V-21.33H21.117Z" transform="translate(-10.719 -16.591)" fill="rgba(0,0,0,0)" stroke="#000" stroke-linecap="round" stroke-linejoin="round" stroke-width="1"/>
      <path id="Path_121" data-name="Path 121" d="M41.235-19.238h6.294V-21.33H41.235Z" transform="translate(-21.437 -16.591)" fill="rgba(0,0,0,0)" stroke="#000" stroke-linecap="round" stroke-linejoin="round" stroke-width="1"/>
      <path id="Path_122" data-name="Path 122" d="M61.352-19.238h6.294V-21.33H61.352Z" transform="translate(-32.156 -16.591)" fill="rgba(0,0,0,0)" stroke="#000" stroke-linecap="round" stroke-linejoin="round" stroke-width="1"/>
      <path id="Path_123" data-name="Path 123" d="M81.47-19.238h6.294V-21.33H81.47Z" transform="translate(-42.874 -16.591)" fill="rgba(0,0,0,0)" stroke="#000" stroke-linecap="round" stroke-linejoin="round" stroke-width="1"/>
      <path id="Path_124" data-name="Path 124" d="M89.367-9.584v-7.268" transform="translate(-47.082 -18.977)" fill="rgba(0,0,0,0)" stroke="#000" stroke-linecap="round" stroke-linejoin="round" stroke-width="1"/>
      <path id="Path_125" data-name="Path 125" d="M89.367-35.919V-47.911" transform="translate(-47.082 -2.429)" fill="rgba(0,0,0,0)" stroke="#000" stroke-linecap="round" stroke-linejoin="round" stroke-width="1"/>
      <path id="Path_126" data-name="Path 126" d="M47.973-35.919V-47.911" transform="translate(-25.027 -2.429)" fill="rgba(0,0,0,0)" stroke="#000" stroke-linecap="round" stroke-linejoin="round" stroke-width="1"/>
      <path id="Path_127" data-name="Path 127" d="M8.093-9.584v-7.268" transform="translate(-3.779 -18.977)" fill="rgba(0,0,0,0)" stroke="#000" stroke-linecap="round" stroke-linejoin="round" stroke-width="1"/>
      <path id="Path_128" data-name="Path 128" d="M8.093-35.919V-47.911" transform="translate(-3.779 -2.429)" fill="rgba(0,0,0,0)" stroke="#000" stroke-linecap="round" stroke-linejoin="round" stroke-width="1"/>
      <path id="Path_130" data-name="Path 130" d="M26.222-43.722c-.238.544-1.909,1.073-1.627,2.457a2.147,2.147,0,0,0,.868,1.215c.709-.094,1.854-.851.953-2.632A1.319,1.319,0,0,1,26.222-43.722Z" transform="translate(-12.554 -6.518)" fill="rgba(0,0,0,0)" stroke="#000" stroke-linecap="round" stroke-linejoin="round" stroke-width="1"/>
      <path id="Path_131" data-name="Path 131" d="M29.831-35.608c-.482.348-2.19-.045-2.649,1.291a2.149,2.149,0,0,0,.131,1.488c.659.279,2.029.208,2.157-1.783A1.32,1.32,0,0,1,29.831-35.608Z" transform="translate(-13.907 -8.984)" fill="#fff"/>
      <path id="Path_132" data-name="Path 132" d="M29.831-35.608c-.482.348-2.19-.045-2.649,1.291a2.149,2.149,0,0,0,.131,1.488c.659.279,2.029.208,2.157-1.783A1.32,1.32,0,0,1,29.831-35.608Z" transform="translate(-13.907 -9.49)" fill="rgba(0,0,0,0)" stroke="#000" stroke-linecap="round" stroke-linejoin="round" stroke-width="1"/>
      <path id="Path_134" data-name="Path 134" d="M20.861-35.608c.482.348,2.19-.045,2.649,1.291a2.15,2.15,0,0,1-.131,1.488c-.659.279-2.029.208-2.157-1.783A1.32,1.32,0,0,0,20.861-35.608Z" transform="translate(-10.582 -9.49)" fill="rgba(0,0,0,0)" stroke="#000" stroke-linecap="round" stroke-linejoin="round" stroke-width="1"/>
      <path id="Path_136" data-name="Path 136" d="M29.435-39.793c-.482.348-2.19-.045-2.649,1.291a2.15,2.15,0,0,0,.131,1.488c.659.279,2.029.208,2.157-1.783A1.32,1.32,0,0,1,29.435-39.793Z" transform="translate(-13.696 -7.697)" fill="rgba(0,0,0,0)" stroke="#000" stroke-linecap="round" stroke-linejoin="round" stroke-width="1"/>
      <path id="Path_138" data-name="Path 138" d="M21.257-39.793c.481.348,2.19-.045,2.649,1.291a2.149,2.149,0,0,1-.131,1.488c-.659.279-2.03.208-2.158-1.783A1.32,1.32,0,0,0,21.257-39.793Z" transform="translate(-10.793 -7.697)" fill="rgba(0,0,0,0)" stroke="#000" stroke-linecap="round" stroke-linejoin="round" stroke-width="1"/>
      <path id="Path_142" data-name="Path 142" d="M26.614-29.662h-4.1l.5,3.718h3.1Z" transform="translate(-11.464 -12.152)" fill="rgba(0,0,0,0)" stroke="#000" stroke-linecap="round" stroke-linejoin="round" stroke-width="1"/>
      <path id="Path_143" data-name="Path 143" d="M21.486-29.662h5.06" transform="translate(-10.915 -12.152)" fill="rgba(0,0,0,0)" stroke="#000" stroke-linecap="round" stroke-linejoin="round" stroke-width="1"/>
      <path id="Path_144" data-name="Path 144" d="M3.862-1H46.338" transform="translate(-1.525 -27.423)" fill="rgba(0,0,0,0)" stroke="#000" stroke-linecap="round" stroke-linejoin="round" stroke-width="1"/>
      <path id="Path_145" data-name="Path 145" d="M3.862-16.86H46.338" transform="translate(-1.525 -18.973)" fill="rgba(0,0,0,0)" stroke="#000" stroke-linecap="round" stroke-linejoin="round" stroke-width="1"/>
      <path id="Path_146" data-name="Path 146" d="M16.066-13.723l.577-.578" transform="translate(-8.027 -20.336)" fill="rgba(0,0,0,0)" stroke="#000" stroke-linecap="round" stroke-linejoin="round" stroke-width="1"/>
      <path id="Path_147" data-name="Path 147" d="M54.068-13.723l.577-.578" transform="translate(-28.274 -20.336)" fill="rgba(0,0,0,0)" stroke="#000" stroke-linecap="round" stroke-linejoin="round" stroke-width="1"/>
      <path id="Path_148" data-name="Path 148" d="M30.545-10.481l.578-.578" transform="translate(-15.742 -22.063)" fill="rgba(0,0,0,0)" stroke="#000" stroke-linecap="round" stroke-linejoin="round" stroke-width="1"/>
      <path id="Path_149" data-name="Path 149" d="M68.547-10.481l.578-.578" transform="translate(-35.989 -22.063)" fill="rgba(0,0,0,0)" stroke="#000" stroke-linecap="round" stroke-linejoin="round" stroke-width="1"/>
      <path id="Path_150" data-name="Path 150" d="M45.393-9.863l.578-.577" transform="translate(-23.652 -22.393)" fill="rgba(0,0,0,0)" stroke="#000" stroke-linecap="round" stroke-linejoin="round" stroke-width="1"/>
      <path id="Path_151" data-name="Path 151" d="M83.394-9.863l.578-.577" transform="translate(-43.899 -22.393)" fill="rgba(0,0,0,0)" stroke="#000" stroke-linecap="round" stroke-linejoin="round" stroke-width="1"/>
      <path id="Path_152" data-name="Path 152" d="M22.147-3.828l.578-.577" transform="translate(-11.267 -25.609)" fill="rgba(0,0,0,0)" stroke="#000" stroke-linecap="round" stroke-linejoin="round" stroke-width="1"/>
      <path id="Path_153" data-name="Path 153" d="M60.149-3.828l.577-.577" transform="translate(-31.514 -25.609)" fill="rgba(0,0,0,0)" stroke="#000" stroke-linecap="round" stroke-linejoin="round" stroke-width="1"/>
    </g>
  </g>
</svg>
